# xmcd CD database file
#
# Track frame offsets:
#	150
#	21311
#	42664
#	74361
#	96745
#	128510
#	153486
#	182634
#	198463
#	217490
#	235621
#	261505
#	283837
#	305022
#
# Disc length: 4299 seconds
#
# Revision: 0
# Processed by: cddbd v1.5.2PL0 Copyright (c) Steve Scherf et al.
# Submitted via: CDex 1.51
#
DISCID=e210c90e
DTITLE=cafe lounge - PLATINUM TEA
DYEAR=2007
DGENRE=Jazz
TTITLE0=Mi Fa Songar - DJ Rodriquez feat.Maki
TTITLE1=Blue Bossa Balanco (Album Version) - Os Morcegos
TTITLE2=Cipsy Woman - Montefiori Cocktail
TTITLE3=The Crickets Sings For Anamaria - Bossa Nostra
TTITLE4=Foto Wiva (Nicola Conte Mix) - Mo' Horizons
TTITLE5=Esquema Da Bossa - Quintetto X
TTITLE6=Nao Posso Demorar - The Juju Orchestra Feat.Katia B
TTITLE7=Solitary Diva - Martini Bros
TTITLE8=Primavera - 12 Fingers Feat.Viviane Cruz
TTITLE9=Tiempo Instrumental - Luca Savoldi
TTITLE10=Bossa 31 - Nicola Conte Apresenta Rosalia De Souza
TTITLE11=A Clave - L.E.D.
TTITLE12=Kharmalion - Bossa Nostra
TTITLE13=What A Wonderful World - Cecilia Dale
EXTD=YEAR: 2007
EXTT0=
EXTT1=
EXTT2=
EXTT3=
EXTT4=
EXTT5=
EXTT6=
EXTT7=
EXTT8=
EXTT9=
EXTT10=
EXTT11=
EXTT12=
EXTT13=
PLAYORDER=
